HIERARCHY
ROOT pelvis
{
  OFFSET 0 100 0
  CHANNELS 6 Xposition Yposition Zposition Zrotation Xrotation Yrotation
  JOINT pelvis_right_femur
  {
    OFFSET -10.78128 -3.44521 -0.5502486
    CHANNELS 3 Zrotation Xrotation Yrotation
    JOINT right_femur_tibia
    {
      OFFSET -0.8047443 -44.0398 -0.1307829
      CHANNELS 3 Zrotation Xrotation Yrotation
      JOINT right_tibia_foot
      {
        OFFSET 3.006224 -47.83518 -5
        CHANNELS 3 Zrotation Xrotation Yrotation
        End Site
        {
          OFFSET 0 -5 15
        }
      }
    }
  }
  JOINT pelvis_left_femur
  {
    OFFSET 10.78128 -3.44521 -0.5502486
    CHANNELS 3 Zrotation Xrotation Yrotation
    JOINT left_femur_tibia
    {
      OFFSET 0.8047443 -44.0398 -0.1307829
      CHANNELS 3 Zrotation Xrotation Yrotation
      JOINT left_tibia_foot
      {
        OFFSET -4.370144 -48.10324 -4.275266
        CHANNELS 3 Zrotation Xrotation Yrotation
        End Site
        {
          OFFSET 0 -5 15
        }
      }
    }
  }
  JOINT pelvis_spine1
  {
    OFFSET 0 6.468898 -3.129235
    CHANNELS 3 Zrotation Xrotation Yrotation
    JOINT spine1
    {
      OFFSET 0 23.15396 4.99043
      CHANNELS 3 Zrotation Xrotation Yrotation
      JOINT spine2
      {
        OFFSET 0 20.79997 -5.064912
        CHANNELS 3 Zrotation Xrotation Yrotation
        JOINT neck
        {
          OFFSET 0 14.38658 9.616178
          CHANNELS 3 Zrotation Xrotation Yrotation
          End Site
          {
            OFFSET 0 20 0
          }
        }
      }
      JOINT right_manubrium
      {
        OFFSET -5.722621 16.35077 3.967754
        CHANNELS 3 Zrotation Xrotation Yrotation
        JOINT right_clavicle
        {
          OFFSET -13.16364 1.694482 -4.693211
          CHANNELS 3 Zrotation Xrotation Yrotation
          JOINT right_humerus
          {
            OFFSET -28.5034 -0.3100689 -2.792744
            CHANNELS 3 Zrotation Xrotation Yrotation
            JOINT right_radius
            {
              OFFSET -25.15693 0.02248979 -1.271978
              CHANNELS 3 Zrotation Xrotation Yrotation
              End Site
              {
                OFFSET -15 0 0
              }
            }
          }
        }
      }
      JOINT left_manubrium
      {
        OFFSET 5.722621 16.35077 3.967754
        CHANNELS 3 Zrotation Xrotation Yrotation
        JOINT left_clavicle
        {
          OFFSET 13.16364 1.694482 -4.693211
          CHANNELS 3 Zrotation Xrotation Yrotation
          JOINT left_humerus
          {
            OFFSET 29.39168 -1.063119 -2.237045
            CHANNELS 3 Zrotation Xrotation Yrotation
            JOINT left_radius
            {
              OFFSET 24.59957 -0.9528479 0.9047498
              CHANNELS 3 Zrotation Xrotation Yrotation
              End Site
              {
                OFFSET 15 -0 -0
              }
            }
          }
        }
      }
    }
  }
}
MOTION
Frames: 7
Frame Time: 0.0416666666667
0 103.5113 0 0.890575 0.8678253 0.08586911 4.381692 -18.04617 11.43342 -0 39.27069 -0 -5.659975 -18.79119 -3.669283 -7.721898 8.825558 -23.9851 -0 5.520371 -0 11.96296 -15.93171 29.29067 -3.864684 -4.045039 5.619901 2.323172 8.873475 -7.223959 1.9187 22.2126 6.241585 2.507445 -25.54507 10.21523 6.667316 -19.93195 10.96082 85.39658 37.88297 -18.32309 -0 0 16.07438 -3.866201 7.487533 3.265519 5.924438 -18.92144 -0.09834878 -94.38366 27.22077 22.78661 0 0 -15.82802 11.22337 17.42515 3.022845
0.2515345 103.6206 1.463229 0.5201051 0.6478961 0.2339717 4.607557 -18.76986 11.22427 -0 40.04081 -0 -6.101471 -17.46317 -3.67285 -7.312298 9.389674 -23.52609 -0 5.616634 -0 10.96762 -16.21531 28.38311 -3.484653 -3.898774 5.320412 2.316719 9.070362 -7.37991 1.79895 22.15483 6.461112 2.578642 -25.63182 10.21947 6.430723 -19.97983 11.06822 85.8551 37.08018 -18.72853 -0 0 15.77686 -4.526215 7.685327 3.495361 5.855626 -19.32639 -0.3803418 -94.22998 27.28844 22.75194 0 0 -16.21228 10.7051 17.43875 3.64689
0.499943 103.44 3.841809 -1.056433 1.024213 0.5102586 6.58554 -25.57002 9.730022 -0 34.21821 -0 -6.780071 -10.68271 -3.19886 -5.750932 12.15333 -20.8689 -0 5.329217 -0 7.044914 -19.21019 24.64274 -1.994679 -2.802261 4.264954 2.53954 9.686485 -8.109297 1.613367 21.15074 7.185147 3.076945 -26.37415 10.25704 5.08232 -19.9053 11.28739 87.64714 33.89599 -20.624 -0 0 14.75263 -7.132168 8.797857 4.31792 6.644843 -21.283 -1.269576 -93.12614 26.77848 21.48881 0 0 -19.45998 9.259086 16.55325 5.163685
0.7439731 103.1644 6.33027 -1.205429 1.508788 0.7720036 7.051886 -26.83568 9.709594 -0 31.89606 -0 -6.514297 -10.30372 -3.112173 -5.687161 12.41816 -20.73737 -0 5.295664 -0 6.608732 -19.90549 24.38673 -1.899247 -2.644804 4.27782 2.597826 9.539712 -8.136606 1.693291 20.9166 7.228971 3.167989 -26.55267 10.35738 5.039365 -19.75772 11.19456 87.64657 34.03645 -20.83449 -0 0 14.79525 -6.968834 9.008823 4.158326 6.930442 -21.36097 -1.137097 -93.2628 27.03154 21.49011 0 0 -19.99077 8.989278 16.50993 5.50699
0.9921209 102.7293 8.944931 -1.226928 2.862524 1.036855 7.833664 -28.98254 9.78968 -0 26.68266 -0 -5.632966 -10.23762 -2.764245 -5.874031 12.50399 -20.92355 -0 5.011373 -0 6.388356 -21.26291 24.45808 -2.032376 -2.437589 4.546342 2.703837 9.065747 -8.038104 1.918179 20.45181 7.269875 3.400754 -26.88998 10.61941 5.344905 -19.34913 10.96113 87.20917 35.41747 -20.98715 -0 0 15.08255 -6.187013 9.528587 3.638236 7.582254 -21.21647 -0.6180844 -93.77943 27.56989 21.70766 0 0 -20.81446 8.798167 16.60703 5.785254
1.257467 102.1158 11.86829 -1.403186 3.950047 1.340287 8.440172 -31.41483 9.256137 -0 21.91986 -0 -5.237816 -8.858305 -2.184461 -5.853418 12.96386 -20.48164 -0 5.303056 -0 5.435266 -22.47139 23.45885 -1.995252 -2.092736 4.533026 2.811652 8.781913 -8.030199 1.984679 20.00945 7.465321 3.711341 -27.14299 10.7479 5.516557 -18.84242 10.826 87.06774 36.30522 -21.28513 -0 0 14.84158 -6.186551 10.12778 3.500784 8.143483 -21.40427 -0.3796022 -93.65939 27.57166 21.26928 0 0 -21.88511 8.826553 16.4292 5.624069
1.54632 101.39 15.21728 -1.663823 4.692353 1.70478 8.769223 -33.51952 8.300118 -0 18.22593 -0 -5.310581 -7.002594 -1.523159 -5.702407 13.61294 -19.59988 -0 6.504316 -0 3.999429 -23.13639 21.65026 -1.833044 -1.726926 4.306917 2.924548 8.638146 -8.100095 1.894988 19.67263 7.737486 4.01296 -27.26331 10.72693 5.602754 -18.267 10.76636 87.13583 36.78922 -21.65966 -0 0 14.16546 -6.673821 10.64269 3.641147 8.506711 -21.76666 -0.3509133 -93.01133 27.12906 20.311 0 0 -22.95008 9.086183 16.00809 5.03169
